<svg width="24"
     height="24"
     viewBox="0 0 24 24"
     fill="none"
     xmlns="http://www.w3.org/2000/svg">
  <path fill-rule="evenodd" clip-rule="evenodd"
        d="M11.5 2C11.1212 2 10.775 2.214 10.6056 2.55279L9.88197 4H7.50001C7.12124 4 6.77497 4.214 6.60558 4.55279L4.88197 8H2C1.44772 8 1 8.44772 1 9C1 9.55228 1.44772 10 2 10H5.47834C5.49229 10.0003 5.50622 10.0003 5.52013 10H17.9799C17.9938 10.0003 18.0077 10.0003 18.0217 10H22C22.5523 10 23 9.55228 23 9C23 8.44772 22.5523 8 22 8H18.618L15.8944 2.55279C15.725 2.214 15.3788 2 15 2H11.5ZM14.382 4H12.118L11.6708 4.89443C11.332 5.572 10.6395 6 9.88197 6H8.11804L7.11804 8H16.382L14.382 4ZM2.5 12C2.5 11.4477 2.94772 11 3.5 11H4C4.45887 11 4.85885 11.3123 4.97014 11.7575L6.39675 17.4639C6.86051 17.1701 7.41039 17 8 17C9.30622 17 10.4175 17.8348 10.8293 19H13.1707C13.5825 17.8348 14.6938 17 16 17C16.5896 17 17.1395 17.1701 17.6033 17.4639L19.0299 11.7575C19.1411 11.3123 19.5411 11 20 11H20.5C21.0523 11 21.5 11.4477 21.5 12C21.5 12.4509 21.2016 12.832 20.7916 12.9568L18.997 20.135C18.9264 21.7292 17.6116 23 16 23C14.6938 23 13.5825 22.1652 13.1707 21H10.8293C10.4175 22.1652 9.30622 23 8 23C6.3884 23 5.07361 21.7292 5.00299 20.135L4.71922 19H2.5C1.94772 19 1.5 18.5523 1.5 18C1.5 17.4477 1.94772 17 2.5 17H4.21922L3.20843 12.9568C2.79837 12.832 2.5 12.4509 2.5 12ZM7.00012 20.0158C7.00857 20.5608 7.45299 21 8 21C8.55228 21 9 20.5523 9 20C9 19.4477 8.55228 19 8 19C7.45269 19 7.00807 19.4397 7.00011 19.9851C7.00027 19.9954 7.00028 20.0056 7.00012 20.0158ZM16 21C16.547 21 16.9914 20.5608 16.9999 20.0158C16.9997 20.0056 16.9997 19.9954 16.9999 19.9851C16.9919 19.4397 16.5473 19 16 19C15.4477 19 15 19.4477 15 20C15 20.5523 15.4477 21 16 21Z"
        fill="#6c757d"></path>
</svg>
